Coordinates
version=1
nRows=13
nColumns=22
inDegrees=yes

Units are S.I. units (second, meters, Newtons, ...)
If the header above contains a line with 'inDegrees', this indicates whether rotational values are in degrees (yes) or radians (no).

endheader
time	pelvis_tilt	pelvis_list	pelvis_rotation	pelvis_tx	pelvis_ty	pelvis_tz	hip_flexion_r	hip_adduction_r	hip_rotation_r	knee_angle_r	ankle_angle_r	subtalar_angle_r	hip_flexion_l	hip_adduction_l	hip_rotation_l	knee_angle_l	ankle_angle_l	subtalar_angle_l	lumbar_extension	lumbar_bending	lumbar_rotation
      2.45000000	     -7.11349849	      4.02068494	    -50.71554537	      0.03018636	      0.84700463	      0.24448670	     -4.18073297	     -5.17090664	     14.42507110	    -40.30745934	     -8.61892860	     12.80799139	     34.27532720	     -8.40661692	     -5.46595964	    -35.56609851	     11.62367507	      0.42042114	      1.12656260	      0.32773417	     25.59540342
      2.46000000	     -7.08142301	      4.22640278	    -50.64293328	      0.03978919	      0.84843112	      0.24825820	     -1.71682501	     -5.21242165	     13.64727423	    -44.19417664	     -9.68441067	     12.38205329	     33.52272221	     -7.89787174	     -5.80556758	    -35.25724203	     12.34281121	      0.08299319	      1.12374226	      0.15355136	     25.08989024
      2.47000000	     -6.98051482	      4.42062840	    -50.50861741	      0.04932887	      0.84994275	      0.25195493	      0.67229827	     -5.33315665	     12.83294455	    -47.86850960	    -10.27902611	     12.12306905	     32.68933981	     -7.31102293	     -6.11409404	    -34.85631204	     12.94793767	     -0.11658274	      1.06358992	     -0.06706647	     24.49061950
      2.48000000	     -6.88522827	      4.56332371	    -50.28425874	      0.05884162	      0.85153891	      0.25560635	      2.95926216	     -5.42032636	     12.00540228	    -51.25757976	    -10.39165086	     11.82640750	     31.81452912	     -6.70819788	     -6.28104702	    -34.38899109	     13.48464448	     -0.33180410	      0.97337438	     -0.24062633	     23.79314774
      2.49000000	     -6.79537019	      4.63238889	    -49.96263289	      0.06836977	      0.85325213	      0.25922439	      5.10470135	     -5.45300678	     11.16104422	    -54.32966147	     -9.99956919	     11.54848735	     30.88882108	     -6.11017859	     -6.31966038	    -33.87873450	     13.96895039	     -0.50439841	      0.83564265	     -0.34921087	     22.98195131
      2.50000000	     -6.73685531	      4.61545539	    -49.54016917	      0.07791981	      0.85508145	      0.26282639	      7.10717027	     -5.39207708	     10.29064739	    -57.06946195	     -9.14607712	     11.21543491	     29.91655873	     -5.54683771	     -6.20390219	    -33.32307197	     14.42316569	     -0.66389267	      0.66357146	     -0.36188165	     22.07159753
      2.51000000	     -6.71962073	      4.49951720	    -49.02971687	      0.08746002	      0.85702257	      0.26642331	      8.97171103	     -5.21829425	      9.38279118	    -59.47893759	     -7.92977547	     10.76767664	     28.90038546	     -5.05773015	     -5.96977173	    -32.74050518	     14.82438802	     -0.82990100	      0.45437858	     -0.26063702	     21.08847754
      2.52000000	     -6.72628687	      4.31025958	    -48.43787286	      0.09702172	      0.85908117	      0.27001921	     10.71249792	     -4.96738816	      8.44241743	    -61.55585965	     -6.54396660	     10.48484440	     27.81259403	     -4.61220792	     -5.61197888	    -32.07283720	     15.19337742	     -0.89936833	      0.22393506	     -0.07725358	     20.03523871
      2.53000000	     -6.77303797	      4.06570201	    -47.79645759	      0.10650734	      0.86114145	      0.27357982	     12.39864768	     -4.64036795	      7.46471598	    -63.35666620	     -5.08062661	      9.95597405	     26.72042352	     -4.24755260	     -5.21498131	    -31.40178950	     15.54534492	     -1.02914335	     -0.00981275	      0.19040041	     18.97466760
      2.54000000	     -6.82247015	      3.76690185	    -47.09896408	      0.11601555	      0.86329032	      0.27717624	     13.96473806	     -4.27201285	      6.46085677	    -64.82663160	     -3.63420926	      9.72101865	     25.53980677	     -3.92759261	     -4.76617755	    -30.62655791	     15.83213767	     -1.05658791	     -0.25558317	      0.50888985	     17.86343938
      2.55000000	     -6.88918317	      3.45217877	    -46.37340167	      0.12543683	      0.86538667	      0.28074414	     15.49835351	     -3.87953959	      5.43654630	    -66.03020266	     -2.27636601	      9.40337066	     24.34868755	     -3.65000098	     -4.27020563	    -29.81357309	     16.10077349	     -1.09139503	     -0.48403423	      0.85876628	     16.78466111
      2.56000000	     -6.95455099	      3.12863366	    -45.63461145	      0.13476754	      0.86742545	      0.28433101	     16.98316925	     -3.48044800	      4.41584499	    -66.96224914	     -1.01011949	      9.15519166	     23.13443303	     -3.41169389	     -3.77877677	    -28.96160888	     16.33605944	     -1.10045486	     -0.70093734	      1.21595142	     15.71596721
      2.57000000	     -7.02328837	      2.81320503	    -44.88360046	      0.14403248	      0.86936791	      0.28793732	     18.42996791	     -3.09580033	      3.38482892	    -67.61941714	      0.16407995	      8.95979375	     21.91361650	     -3.20114730	     -3.28490135	    -28.07140068	     16.54355173	     -1.09376674	     -0.88490455	      1.57143479	     14.67288485
